<svg width="151" height="100" viewBox="0 0 151 100" fill="none" xmlns="http://www.w3.org/2000/svg">
<path d="M73.7362 1.84975C69.0106 6.96916 65.939 13.7032 65.3483 20.4372C65.1907 22.1699 65.1514 23.627 65.2695 23.627C65.3483 23.627 66.1359 23.0756 66.9628 22.4062C70.3495 19.7283 76.4535 16.9323 79.0525 16.9323C80.6671 16.9323 80.9034 16.4598 80.549 14.3726C80.3521 13.27 79.9189 10.6315 79.5645 8.46561C78.7375 3.38557 78.1862 1.14091 77.6742 0.510826C76.8473 -0.473677 75.5083 -0.0404949 73.7362 1.84975Z" fill="black"/>
<path d="M132.688 1.29859C132.413 2.00743 131.979 3.81892 131.783 5.31536C131.271 8.82019 130.168 15.0029 129.932 15.633C129.695 16.3418 130.483 16.7356 133.279 17.2869C136.902 17.9958 141.628 20.3979 144.109 22.7214C145.132 23.7059 145.487 23.2727 145.487 21.1462C145.487 16.4993 143.124 10.1591 139.462 4.80342C136.154 -0.000951767 133.752 -1.22174 132.688 1.29859Z" fill="black"/>
<path d="M79.722 22.9971C71.7672 24.7298 65.7026 30.4399 63.6155 38.1978C63.0642 40.2456 63.2217 46.6251 63.8518 48.8698C65.5845 54.9343 71.334 60.802 77.3592 62.5741C81.0215 63.6373 83.8175 63.8343 86.9285 63.2435C94.7652 61.7077 100.593 56.8246 103.035 49.6968C104.138 46.3495 104.256 39.8518 103.232 36.8983C100.554 29.2585 95.0408 24.4935 86.8891 22.8789C84.3688 22.367 82.5967 22.4064 79.722 22.9971ZM86.6529 39.9305C87.7949 41.0725 87.9918 41.5451 87.9918 43.0415C87.9918 48.1216 81.7697 49.303 79.3675 44.6168C78.7375 43.3566 78.8556 42.0964 79.6826 40.7969C80.7065 39.2611 81.9273 38.631 83.8175 38.5916C84.9989 38.5916 85.5896 38.8673 86.6529 39.9305Z" fill="black"/>
<path d="M122.961 23.0365C115.755 24.6117 109.612 30.2825 107.485 37.2528C106.816 39.5368 106.697 46.5071 107.327 48.4761C109.06 53.9893 113.234 59.0693 117.921 61.3534C121.662 63.2042 126.269 63.9919 129.774 63.4012C138.32 61.9441 144.542 56.7065 146.904 48.8699C147.613 46.4677 147.613 39.7337 146.865 37.2921C144.66 30.0462 138.635 24.6117 131.034 22.9972C127.923 22.3671 126.072 22.3671 122.961 23.0365ZM130.601 40.2063C134.421 44.7744 127.805 50.3663 123.749 45.9951C122.371 44.4987 122.253 42.254 123.473 40.4819C124.576 38.9855 125.56 38.5523 127.766 38.7492C129.183 38.8673 129.735 39.1824 130.601 40.2063Z" fill="black"/>
<path d="M19.1424 28.9955C19.1845 31.9344 19.2688 34.5991 19.3953 34.8734C19.5638 35.2652 21.3759 35.3828 27.3598 35.3828C31.6161 35.3828 35.1137 35.4612 35.1137 35.5787C35.1137 35.8922 33.8495 38.165 33.386 38.6744C33.1753 38.9096 32.3746 39.9676 31.6161 41.0648C30.8997 42.1228 30.1411 43.1808 29.9304 43.416C29.7619 43.6119 29.0033 44.6699 28.2448 45.7671C27.5284 46.8252 26.6856 47.9616 26.3906 48.2359C26.0956 48.5102 25.8428 48.902 25.8428 49.098C25.8428 49.2939 25.5899 49.6857 25.3371 49.96C25.0421 50.2343 24.2414 51.2532 23.525 52.2328C22.8508 53.2125 22.1344 54.0746 22.008 54.1921C21.8816 54.3097 21.418 54.9759 20.9966 55.7204C20.6173 56.4649 20.1116 57.2487 19.9009 57.4838C18.5946 58.9337 16.9511 61.7159 17.1197 62.1861C17.2882 62.6172 20.828 62.6955 37.7265 62.5388C48.9359 62.4604 58.3333 62.3037 58.6283 62.2253C59.0497 62.0686 59.134 60.7362 59.0497 56.4649L58.9233 50.8613L50.6215 50.7438C46.0282 50.7046 42.2777 50.5478 42.2777 50.4303C42.2777 50.2735 43.0362 49.1371 43.9633 47.8832C44.8904 46.6292 45.6489 45.4145 45.6489 45.2185C45.6489 45.0226 45.7753 44.7875 45.9861 44.7091C46.1546 44.6307 47.2081 43.2592 48.3881 41.6526C49.5259 40.046 50.5794 38.6353 50.748 38.5177C50.8744 38.4001 51.3379 37.734 51.7593 36.9894C52.1386 36.2449 52.6443 35.4612 52.855 35.2261C53.0657 34.9909 53.8664 33.8937 54.6249 32.8357C55.3413 31.7385 56.1841 30.6413 56.4791 30.367C56.7319 30.1319 57.1112 29.5441 57.2376 29.113C57.3641 28.682 57.659 28.3293 57.8276 28.3293C58.0383 28.3293 58.4176 27.7807 58.7126 27.1537C59.0075 26.4876 59.3868 25.9781 59.5554 25.9781C59.8082 25.9781 60.8196 24.2539 60.8196 23.8229C60.8196 23.7053 51.4222 23.627 39.9599 23.627H19.1003L19.1424 28.9955Z" fill="#274E64"/>
<path d="M100.79 60.723C97.2461 61.9438 96.4979 65.6455 99.4514 67.2601C100.121 67.6145 101.578 68.6778 102.681 69.5835C103.783 70.5286 105.004 71.2769 105.358 71.2769C105.752 71.2769 106.973 70.4893 108.115 69.5048C109.257 68.5202 110.399 67.7326 110.635 67.7326C111.384 67.7326 113.195 65.5667 113.195 64.7004C113.195 61.6681 110.635 60.2504 105.437 60.2898C103.508 60.2898 101.46 60.4867 100.79 60.723Z" fill="black"/>
<path d="M19.3917 66.8664L17.147 66.9845L17.0289 78.6804C16.9501 85.0994 16.9895 90.6126 17.0683 90.8489C17.147 91.2033 18.0922 91.3608 20.1005 91.3608H23.0147V89.8644C23.1328 81.2402 23.5266 79.7043 25.6531 79.468C26.4801 79.3499 27.2677 79.5074 27.5434 79.8225C28.0947 80.3344 28.8035 86.6746 28.3704 87.3441C28.2522 87.5803 28.2522 88.5649 28.3704 89.5494L28.646 91.3608H31.5208C33.5685 91.3608 34.4349 91.2033 34.4743 90.8489C34.4743 90.6126 34.4743 87.856 34.4743 84.745C34.4349 77.3809 33.6473 75.4907 30.2606 74.5062C28.0553 73.8761 27.4646 73.9154 25.1806 75.0181L23.2116 75.9238L23.0934 71.4739C22.9753 66.4332 23.1722 66.6695 19.3917 66.8664Z" fill="#3F6E89"/>
<path d="M5.41173 74.5458C4.4666 74.7821 3.71838 75.0971 3.71838 75.294C3.71838 75.4515 3.52148 75.6091 3.2852 75.6091C2.02504 75.6091 1.00115 77.775 1.04053 80.3741C1.07991 82.1462 1.27682 82.6581 2.1038 83.3669C2.65512 83.8789 3.44272 84.2727 3.79714 84.2727C4.15156 84.2727 4.58475 84.4302 4.70289 84.6665C4.82103 84.8634 5.37235 85.0603 5.92367 85.0603C7.30197 85.0603 8.28648 86.0842 7.65639 86.8324C6.98693 87.6594 5.33297 87.5806 3.79714 86.6355C1.98566 85.5328 1.67062 85.6116 0.646734 87.5412C-0.259009 89.274 -0.219629 90.5735 0.804254 90.5735C1.1193 90.5735 1.35558 90.731 1.35558 90.8885C1.35558 91.4399 7.61701 92.1881 8.444 91.7549C8.8378 91.5186 9.54664 91.3611 9.97982 91.3611C10.413 91.3611 11.4763 90.6916 12.3426 89.8647C13.9966 88.2895 14.6661 86.3204 14.1935 84.4302C13.7997 82.8944 11.7519 81.1223 10.413 81.1223C9.78292 81.1223 9.15284 80.9254 9.0347 80.7285C8.91656 80.4922 8.444 80.3347 8.01082 80.3347C7.53825 80.3347 7.26259 80.059 7.26259 79.5864C7.26259 78.6807 8.444 78.3657 10.1373 78.8382C11.6732 79.232 12.1851 78.9564 12.9727 77.1843C13.7997 75.3334 13.524 74.8215 11.7913 74.8215C11.0431 74.8215 10.3342 74.6246 10.2161 74.4277C9.90106 73.9551 7.65639 73.9945 5.41173 74.5458Z" fill="#3F6E89"/>
<path d="M44.0831 74.5061C41.0902 75.2937 40.0663 75.9632 38.0973 78.4835C36.9159 80.0194 36.5615 83.6423 37.3491 86.0051C38.0185 87.9348 40.3026 90.5732 41.2871 90.5732C41.6021 90.5732 41.9959 90.7308 42.114 90.967C42.2322 91.1639 42.7835 91.3608 43.2955 91.3608C43.8074 91.3608 44.3587 91.5184 44.4769 91.7546C44.595 91.9515 45.6583 92.1484 46.8397 92.1484C48.0211 92.1484 49.0843 91.9515 49.2025 91.7546C49.3206 91.5184 49.7538 91.3608 50.1476 91.3608C50.9746 91.3608 52.9436 90.4945 52.9436 90.0613C52.9436 89.9038 53.1405 89.7856 53.3374 89.7856C53.9675 89.7856 55.1095 88.5648 55.8183 87.0684C56.2515 86.202 56.4878 84.7056 56.4878 82.8154C56.4878 80.4132 56.3303 79.6256 55.6214 78.6411C54.44 76.9871 53.8887 76.3964 53.3768 76.3964C53.1405 76.3964 52.9436 76.1995 52.9436 76.0026C52.9436 75.7663 52.6679 75.6088 52.3529 75.6088C52.0378 75.6088 51.7622 75.4513 51.7622 75.2544C51.7622 74.8999 50.3445 74.5849 47.2335 74.2699C46.3671 74.1517 44.9494 74.2699 44.0831 74.5061ZM47.8242 79.9406C47.8242 80.1375 48.0604 80.3344 48.3755 80.3344C48.6905 80.3344 49.2418 80.7282 49.5569 81.2008C50.2263 82.1459 50.4233 84.2724 49.8325 84.2724C49.6356 84.2724 49.36 84.5875 49.2418 84.9813C48.9268 85.9264 46.7215 86.8715 46.1308 86.2808C45.8945 86.0445 45.422 85.8476 45.0676 85.8476C44.3193 85.8476 43.4924 84.2724 43.4924 82.8941C43.4924 81.6733 45.6583 79.5468 46.879 79.5468C47.391 79.5468 47.8242 79.7043 47.8242 79.9406Z" fill="#3F6E89"/>
<path d="M66.5691 74.9393C65.4271 75.5694 64.9939 75.6876 64.8758 75.2938C64.7576 74.9787 63.7731 74.8212 61.7647 74.8212H58.8506V86.9897C58.8506 100.497 58.7325 99.9063 61.4497 99.3944C62.3161 99.2369 63.0249 99.3156 63.4187 99.6701C64.4426 100.497 64.9151 99.1187 65.0727 94.7082C65.1514 92.5423 65.2696 90.7308 65.3483 90.652C65.3877 90.5732 65.8209 90.6914 66.2935 90.9277C66.766 91.1639 67.4749 91.5184 67.908 91.7547C68.3412 91.9516 69.2863 92.1485 70.0346 92.1485C70.7828 92.1485 71.531 91.9516 71.6491 91.7547C71.7673 91.5184 72.358 91.3609 72.8699 91.3609C73.7757 91.3609 74.9571 90.3763 77.3199 87.5804C78.2256 86.5171 78.1469 80.4919 77.2017 78.7986C76.3748 77.2628 74.8389 75.6088 74.2089 75.6088C74.012 75.6088 73.8151 75.4119 73.8151 75.215C73.8151 74.9787 73.4606 74.8212 73.0668 74.8212C72.6336 74.8212 72.1611 74.6243 72.0429 74.4274C71.6098 73.7186 68.1837 74.073 66.5691 74.9393ZM69.6408 79.98C70.1921 80.2557 70.9009 81.0433 71.2553 81.7521C71.8067 82.9335 71.8067 83.1698 71.216 84.3906C70.4677 85.9658 69.0107 86.6352 67.2386 86.1627C66.5297 85.9658 65.939 85.7689 65.939 85.6901C65.939 85.6114 65.7027 84.9419 65.3877 84.1937C64.8758 83.0516 64.8758 82.6972 65.3877 81.6733C65.7027 81.0039 66.451 80.295 67.0417 80.0588C68.4594 79.4681 68.4987 79.4681 69.6408 79.98Z" fill="#3F6E89"/>
<path d="M89.4883 74.5454C88.6613 74.7816 87.9919 75.0967 87.9919 75.2936C87.9919 75.4511 87.6374 75.6086 87.2043 75.6086C86.7711 75.6086 86.4167 75.4117 86.4167 75.2148C86.4167 74.9785 85.2353 74.821 83.6994 74.821C81.5729 74.821 80.9428 74.9785 80.7459 75.4511C80.6278 75.8055 80.5096 81.2794 80.5096 87.6589C80.5096 96.6376 80.6278 99.2367 81.0216 99.2761C81.2579 99.3155 82.5968 99.3548 83.9357 99.3942C86.8498 99.4336 86.8105 99.5124 86.8105 94.196C86.8105 90.9275 87.1255 89.8642 87.795 90.9669C87.9131 91.1638 88.4644 91.3607 88.9764 91.3607C89.4883 91.3607 90.0396 91.5576 90.1972 91.7939C90.4334 92.1877 91.1423 92.1483 94.1745 91.5182C95.671 91.2425 97.8369 89.3129 98.8608 87.4227C99.8453 85.5718 99.8847 80.6887 98.9002 78.8772C98.1519 77.4595 96.4192 75.6086 95.8679 75.6086C95.6316 75.6086 95.4741 75.4511 95.4741 75.2542C95.4741 74.9392 94.4108 74.6241 92.048 74.2697C91.4179 74.1909 90.2759 74.3091 89.4883 74.5454ZM92.2843 80.728C93.8989 82.3032 93.9383 83.9178 92.3631 85.493C90.7879 87.0682 88.8188 86.9107 87.3224 85.0599C86.6923 84.2723 86.6923 81.5944 87.3224 80.9643C89.0157 79.2316 90.6303 79.1528 92.2843 80.728Z" fill="#3F6E89"/>
<path d="M121.268 74.4276C121.15 74.6245 120.677 74.8214 120.244 74.8214C119.85 74.8214 119.496 74.9789 119.496 75.2152C119.496 75.4121 119.142 75.609 118.708 75.609C118.275 75.609 117.921 75.4121 117.921 75.2152C117.921 74.6245 112.565 74.7033 112.171 75.294C111.974 75.5696 111.856 79.3107 111.935 83.5638L112.053 91.3611H114.928C117.212 91.3611 117.881 91.2429 118.078 90.731C118.196 90.3766 118.315 88.1713 118.315 85.8478C118.315 80.4528 118.669 79.547 120.756 79.547C123.276 79.547 123.434 79.9408 123.434 86.0054V91.3611H126.387C129.971 91.3611 129.853 91.6367 129.656 83.997C129.538 79.6652 129.38 78.2869 128.79 77.1842C127.884 75.4909 127.214 74.8214 126.427 74.8214C126.112 74.8214 125.718 74.6245 125.6 74.4276C125.482 74.1913 124.497 74.0338 123.434 74.0338C122.371 74.0338 121.386 74.1913 121.268 74.4276Z" fill="#3F6E89"/>
<path d="M136.823 74.9394C135.839 75.3726 134.972 75.9239 134.894 76.1208C134.854 76.2783 134.382 76.8297 133.87 77.3416C132.373 78.838 132.098 79.7438 132.098 83.0517C132.098 86.0052 132.609 88.2105 133.318 88.2105C133.476 88.2105 133.751 88.5649 133.87 88.9981C133.988 89.4313 134.303 89.7857 134.539 89.7857C134.775 89.7857 135.287 90.1401 135.681 90.6127C136.272 91.2822 136.863 91.4397 139.501 91.4791C141.549 91.5184 143.006 91.3609 143.675 91.0065C144.896 90.337 145.29 90.6127 144.935 91.9122C144.345 94.3144 141.391 95.2989 139.659 93.7237C138.95 93.0543 138.28 92.9361 135.445 92.9361C132.688 92.9361 132.098 93.0543 132.098 93.5662C132.098 94.787 134.263 97.6617 135.248 97.6617C135.445 97.6617 135.642 97.8193 135.642 97.9768C135.642 98.5675 139.422 99.3945 142.139 99.3551C143.675 99.3157 145.526 99.04 146.274 98.725C148.322 97.898 150.173 96.0865 150.606 94.5113C150.842 93.7631 151 88.9981 151 83.9968V74.8213H148.44C147.023 74.8213 145.487 75.0576 145.054 75.2938C144.384 75.6876 144.148 75.6876 144.03 75.2938C143.912 75.0576 143.518 74.8213 143.085 74.8213C142.691 74.8213 142.336 74.6244 142.336 74.4275C142.336 73.7186 138.635 74.0337 136.823 74.9394ZM144.069 80.7677C146.353 83.4849 144.305 86.7141 140.722 85.9658C139.974 85.8477 139.422 85.3358 139.028 84.4694C138.123 82.6185 138.241 82.0672 139.619 80.7283C141.273 79.1531 142.73 79.1531 144.069 80.7677Z" fill="#3F6E89"/>
<path d="M102.405 75.4907C102.129 76.3176 102.169 89.6675 102.444 90.652C102.602 91.2427 103.074 91.3608 105.555 91.3608H108.469V83.091V74.8212H105.555C103.114 74.8212 102.562 74.9393 102.405 75.4907Z" fill="#3F6E89"/>
</svg>
